<?xml version="1.0" encoding="utf-8"?>
<!-- Generator: Adobe Illustrator 19.0.0, SVG Export Plug-In . SVG Version: 6.00 Build 0)  -->
<svg version="1.1" id="layer" xmlns="http://www.w3.org/2000/svg" xmlns:xlink="http://www.w3.org/1999/xlink" x="0px" y="0px"
	 viewBox="-153 -46 652 652" style="enable-background:new -153 -46 652 652;" xml:space="preserve">
<style type="text/css">
	.st0{fill:#737275;}
</style>
<polygon class="st0" points="-13.9,255.9 -32.5,273.8 -32.5,297.6 4.8,297.6 4.8,273.8 "/>
<polygon class="st0" points="-43.8,269 -13.9,240.3 16,269 16,308.8 -32.5,308.8 -32.5,325.7 36.5,325.7 36.5,260.3 -13.9,211.9 
	-64.3,260.3 -64.3,325.7 -43.8,325.7 "/>
<g>
	<path class="st0" d="M-93.2,325.7v-39.4c9.4-3.4,16.1-12.5,16.1-23.1c0-13.6-11-24.6-24.6-24.6c-13.6,0-24.6,11-24.6,24.6
		c0,10.6,6.7,19.6,16.1,23.1v39.4H-93.2z"/>
	<path class="st0" d="M86.6,237.5c-5.5-13-13.4-24.7-23.4-34.7c-10-10-21.7-17.9-34.7-23.4c-13.5-5.7-27.8-8.6-42.5-8.6v20.5
		c48.9,0,88.6,39.7,88.6,88.6c0,22.9-8.7,43.8-23,59.5c-6.7,7.4-14.6,13.6-23.4,18.4c-12.5,6.8-26.9,10.7-42.2,10.7
		c-27.1,0-52.3-13.5-68.6-32.7h-25.3c4.4,7.2,10.6,15.2,16.7,21.2c10,10,21.7,17.9,34.7,23.4c13.5,5.7,27.7,8.6,42.5,8.6
		c18.2,0,36.2-4.6,52-13.2c10.8-5.9,20.5-13.5,28.8-22.6c18.2-20.1,28.3-46.1,28.3-73.3C95.2,265.2,92.3,250.9,86.6,237.5"/>
	<path class="st0" d="M137.4,325.7V234h38c10.3-0.1,22.3,0.4,29.5,9.2c1.8,2.2,4.9,6.9,4.9,14.3c0,3.2-0.8,10.8-8,16.2
		c-1.7,1.2-3.1,1.9-4.9,2.7c4,1.7,6.6,3.4,9.6,6.6c3.9,4.5,5.7,9.6,5.7,15.6c0,17.7-13.4,23.9-19.2,25.6c-4,1-8.1,1.3-16.6,1.4
		H137.4z M157.9,269.3h21.5c5.2-0.3,7.4-1.9,8.7-4.3c0.5-0.8,1.3-2.5,1.3-4.8c0-0.8-0.1-3-1.4-5.1c-2.6-3.8-7-4-15.3-4h-14.8V269.3z
		 M157.9,308.8h12.7c10.8,0,15.8-0.5,18.9-6c1.6-2.6,1.7-5.1,1.7-6.1c0-1.8-0.5-6.7-5.3-9.2c-3.2-1.7-6-1.5-12.7-1.7h-15.3V308.8z"
		/>
	<path class="st0" d="M285.5,306.2c-0.2,0.9-0.6,2.6-1.7,4.5c-1.3,2.5-5.1,8.4-11.8,12.3c-7.5,4.3-16.5,4.5-19,4.5
		c-4.4,0-16.5-0.5-25.4-10.6c-3.4-3.9-8.4-12.1-8.4-24.9c0-4.3,0.4-15.8,9.1-25.2c3.9-4.2,11.4-10.4,25.3-10.4
		c4.1,0,14.3,0.4,22.6,9c10.9,11.3,10.3,28.4,10.1,32.2h-47.1c0.1,0.8,0.3,2.2,0.9,4c0.4,1.6,2.4,6.6,7.1,9.1
		c1.3,0.5,3.4,1.3,6.6,1.3c6,0,9.1-2.6,10.6-4.4c0.8-1,1.7-2.5,1.8-2.7L285.5,306.2z M266.2,283.1c-0.1-1.2-0.4-2.6-0.9-3.9
		c-1.1-2.8-4.3-7.7-12.1-7.7c-2.9,0-9.4,0.5-12.6,7.9c-0.7,1.2-0.8,1.6-1.3,3.6H266.2z"/>
	<path class="st0" d="M319.3,273v24.7c-0.1,10.1-0.5,13.3,7.3,13.3h3.5c0.5-0.1,1.2-0.1,1.7-0.1v14.8c-4.4,0.5-8.7,0.9-13.1,0.9
		c-9.2,0-13.5-2.7-15.8-6.5c-2.5-3.9-2.7-8.7-2.6-17.9V273h-9.6v-14.5h9.6v-19.9h19.1v19.9h11.8V273H319.3z"/>
	<path class="st0" d="M403.9,306.6c-5.6,13.9-18.8,21-33.2,21c-3.9,0-14.9-0.5-23.6-9c-6.9-6.9-10-17.1-10-26.5
		c0-2.9,0.3-10.6,4.3-18.3c8.6-16.5,26.2-17.4,31.7-17.4c2.3,0,8.2,0.1,14.4,2.8c12.7,5.6,19.1,18.6,19.2,31.9
		C406.6,293.9,406.6,300,403.9,306.6 M383.2,277.1c-3.9-5.1-8.7-5.3-11-5.3c-7.5,0-15.6,4.5-15.6,20c0,9.9,3,14.8,6.9,17.7
		c2.3,1.7,5.3,2.6,8.3,2.6c1.6,0,4.9-0.1,8.3-2.6c5.7-4.3,6.9-11.8,6.9-18.4C387,289.1,387.3,282.4,383.2,277.1"/>
	<path class="st0" d="M432.1,258.4v7.7c1.2-1.4,2.6-3.4,6.2-5.7c4-2.5,7.7-3.5,12.3-3.5c3.5,0,13.2,0.6,19.1,9.7
		c4.5,7,3.9,14.8,4,22.6v36.5h-19.6v-35.2c0.1-5.2,0.8-12.1-4.3-15.5c-1.1-0.6-3-1.8-5.8-1.8c-5.7,0.1-8.6,4-9.6,5.7
		c-1.8,3.4-1.7,7-1.8,14.3v32.5h-19.2v-67.2H432.1z"/>
</g>
</svg>
