<?xml version="1.0" encoding="UTF-8"?>
<svg id="OBJECTS" xmlns="http://www.w3.org/2000/svg" viewBox="0 0 156.22 227.08">
  <defs>
    <style>
      .cls-1 {
        fill: #fcf8f0;
      }

      .cls-2 {
        fill: #fff;
      }

      .cls-3 {
        fill: #d98060;
      }

      .cls-4 {
        fill: #353436;
      }
    </style>
  </defs>
  <circle class="cls-1" cx="78.11" cy="107.74" r="20.83"/>
  <g>
    <path class="cls-3" d="M90.41,225.71c-.72,.24-1.02-.36-1.24-.95-.09-.25-.24-.48-.39-.77-1.82,.11-3.64,.17-5.46,.34-19.81,1.8-37.34-3.55-52.54-16.51-7.85-6.69-14.39-14.35-18.97-23.65-.91-1.87-1.81-3.77-3.32-5.3-.69-.7-1.13-1.61-1.44-2.55,.84-.5,1,.15,1.24,.47,.25,.33,.52,.65,.8,.95,.97,1.04,2.07,1.91,3.28,2.68,7.19,4.63,15.22,7.16,23.33,9.56,8.29,2.46,16.72,4.48,24.66,8.04,7.96,3.58,15.31,8.02,21.91,13.81,3.6,3.16,5.79,7.14,7.93,11.2,.19,.35,.37,.7,.56,1.05,.29,.56,.52,1.33-.35,1.63Z"/>
    <g>
      <path d="M155.93,113.3c-.01,12.02,.11,24.06-.04,36.1-.23,19.08-6.56,35.98-18.87,50.52-3.15,3.72-6.53,7.05-10.14,10l-.37-.46c.58-.45,.93-1.02,.68-1.89-.2-.71,.27-1.13,.62-1.56,.57-.73,1.23-1.37,1.87-2.02,3.7-3.77,7.44-7.51,10.52-11.83,2.35-3.26,5.07-6.26,6.74-10.02,2.75-6.16,5.23-12.36,5.96-19.13,.46-4.19,1.05-8.33,.58-12.55-.26-2.45-.46-4.94-.29-7.38,.33-4.51,1.18-8.96,1.13-13.5-.13-12.5,.39-25.02-.63-37.57h.86c.45-1.59-.1-2.61-1.38-3.61-.17-.12-.32-.24-.48-.38,0-1.42,.02-2.84,.04-4.26,.11-5.94,.19-11.86-.77-17.74-2.27-13.98-7.79-26.56-17.27-37.12C115.78,7.82,91.99-.38,64.3,4.5,42.32,8.36,25.4,20.56,13.89,39.8c-5.95,9.96-9.06,20.84-9.95,32.42-.39,5.08,.01,10.14-.02,15.2-.05,7.18-.17,14.36-.12,21.52,0,1.14,0,2.3,0,3.44-.61,.14-1.23,.28-1.85,.42-1.12,.21-1.5,.58-1.5,1.17h-.2c0-10.8,.1-21.61,.2-32.4,.13-12.33,1.8-24.29,7.18-35.47C18.38,23.74,35.48,8.9,59.68,2.66c39.47-10.15,79.4,12.78,92.12,50.32,2.72,8,4.17,16.22,4.13,24.7-.03,11.88,0,23.74,0,35.62Z"/>
      <path class="cls-4" d="M153.17,88.4c1.28,1,1.83,2.02,1.38,3.61h-.86c1.02,12.55,.5,25.07,.63,37.57,.05,4.54-.8,8.99-1.13,13.5-.17,2.44,.03,4.93,.29,7.38,.47,4.22-.12,8.36-.58,12.55-.73,6.77-3.21,12.97-5.96,19.13-1.67,3.76-4.39,6.76-6.74,10.02-3.08,4.32-6.82,8.06-10.52,11.83-.64,.65-1.3,1.29-1.87,2.02-.35,.43-.82,.85-.62,1.56,.25,.87-.1,1.44-.68,1.89-.15,.12-.32,.23-.49,.34-.57-.54-.52-1.29-.7-1.92-.04-.14-.09-.28-.13-.42,1.97-1.62,3.87-3.36,5.72-5.18,13.93-13.94,21.67-30.66,21.82-50.54,.07-9.24-.23-18.5-.19-27.76,0-3.04,.05-6.09,.15-9.14,0-8.94-.08-17.88,0-26.82,.16,.14,.31,.26,.48,.38Z"/>
      <path class="cls-4" d="M152.54,123.98c-.04,9.26,.26,18.52,.19,27.76-.15,19.88-7.89,36.6-21.82,50.54-1.85,1.82-3.75,3.56-5.72,5.18-1.16-3.66-3.95-6.06-6.76-8.34-5.36-4.34-11.72-6.74-18.19-8.84-8.27-2.71-16.79-4.06-25.43-4.9-8.83-.87-17.51-2.58-26.06-4.98-6.98-1.96-13.64-4.36-19.65-8.62-5.53-3.9-7.77-12.77-4.96-18.44,2.64-5.36,6.58-8.98,11.84-11.36,7.16-3.26,14.72-5.44,22.22-7.7,2.49-.76,4.84-1.82,7.04-3.18,1.91-1.2,2.71-3.56,2.01-5.76-.61-1.9-1.88-3.36-3.23-4.77-3.32-3.47-7.19-6.37-10.68-9.67-3.35-3.16-6.44-6.5-8.34-10.8-.59-1.34-.93-2.72-.87-4.38-1.52,.14-2.89,.5-4.12,1.08l-.77-1.69c.84-.4,1.7-.77,2.56-1.13,2.73-1.1,5.26-.74,7.67,.78,8.46,5.34,17.46,9.7,26.22,14.5,.99,.52,1.82,.46,2.83,.1,.06-.02,.12-.04,.18-.07l.56,1.51c.24,.5,.68,.58,1.04,.8,6.67,4.02,13.91,6.68,21.28,9.06,4.2,1.36,8.45,2.58,12.24,4.94,3.13,1.92,3.49,4.7,1.03,7.4-.57,.62-1.25,1.2-1.95,1.68-4.51,3.2-9.53,5.48-14.57,7.62-12.64,5.38-26,7.8-39.61,9.1-5.11,.5-10.1,1.51-14.71,3.9-6.13,3.19-7.01,7.42-2.89,12.84,.29,.38,.64,.72,.97,1.06,3.12,3.32,7.15,5.14,11.25,6.82,9.56,3.9,19.66,5.34,29.83,6.47,7.31,.81,14.58,1.87,21.71,3.77,3.25,.89,6.49,1.81,9.88,2.88-.11-.36-.11-.44-.15-.46-.78-.45-1.6-.88-2.36-1.38-10.81-7.08-22.24-12.86-34.69-16.5-3-.88-5.91-2.04-8.33-4.12-2.77-2.4-2.71-5.56,.07-7.9,1.75-1.46,3.7-2.63,5.82-3.44,11.86-4.54,24.05-8.04,36.29-11.38,10.07-2.74,20.07-5.7,29.42-10.46,3.29-1.68,6.32-3.76,8.36-6.96,.67-1.05,1.02-1.84,1.02-2.57h2.33Z"/>
      <path class="cls-4" d="M152.69,88.02c-.08,8.94,0,17.88,0,26.82-.1,3.05-.15,6.1-.15,9.14h-2.33c0-.88-.51-1.65-1.59-2.66-1.69-1.6-3.61-2.92-5.34-4.46-3.97-3.56-6.55-8.12-8.64-12.92-2.77-6.34-5-12.82-4.02-19.96,.23-1.68,.74-3.3,.95-5.12-16.21,12.78-32.07,25.88-52.31,31.94l-.56-1.51c12.61-4.57,24.06-11.21,34.76-19.22,5.43-4.07,10.91-8.09,16.38-12.11,.69-.52,1.4-1.02,2.14-1.45,3.29-1.87,5.21-1.63,8.01,.91,4.08,3.72,8.34,7.24,12.7,10.6Z"/>
      <path class="cls-2" d="M150.21,123.97c0,.73-.35,1.52-1.02,2.57-2.04,3.2-5.07,5.28-8.36,6.96-9.35,4.76-19.35,7.72-29.42,10.46-12.24,3.34-24.43,6.84-36.29,11.38-2.12,.81-4.07,1.98-5.82,3.44-2.78,2.34-2.84,5.5-.07,7.9,2.42,2.08,5.33,3.24,8.33,4.12,12.45,3.64,23.88,9.42,34.69,16.5,.76,.5,1.58,.93,2.36,1.38,.04,.02,.04,.1,.15,.46-3.39-1.07-6.63-1.99-9.88-2.88-7.13-1.9-14.4-2.96-21.71-3.77-10.17-1.13-20.27-2.57-29.83-6.47-4.1-1.68-8.13-3.5-11.25-6.82-.33-.34-.68-.68-.97-1.06-4.12-5.42-3.24-9.65,2.89-12.84,4.61-2.39,9.6-3.4,14.71-3.9,13.61-1.3,26.97-3.72,39.61-9.1,5.04-2.14,10.06-4.42,14.57-7.62,.7-.48,1.38-1.06,1.95-1.68,2.46-2.7,2.1-5.48-1.03-7.4-3.79-2.36-8.04-3.58-12.24-4.94-7.37-2.38-14.61-5.04-21.28-9.06-.36-.22-.8-.3-1.04-.8,20.24-6.06,36.1-19.16,52.31-31.94-.21,1.82-.72,3.44-.95,5.12-.98,7.14,1.25,13.62,4.02,19.96,2.09,4.8,4.67,9.36,8.64,12.92,1.73,1.54,3.65,2.86,5.34,4.46,1.08,1.01,1.59,1.78,1.59,2.65Z"/>
      <path class="cls-4" d="M126.51,209.46l.37,.46c-9.93,8.14-21.58,13.37-34.8,15.66-22.2,3.86-42.4-1.22-60.36-14.7-15.09-11.31-24.71-26.34-29.12-44.7-1.78-7.38-2.03-14.9-2.16-22.46-.15-9.92-.2-19.84-.18-29.75h.2c0,.3,.1,.65,.24,1.07,.88,.06,1.65-.52,2.46-.08-.15,3.46-.22,6.9-.16,10.34,.05,2.9,.22,5.82-.2,8.72-.08,.54-.59,1.18,.16,1.6,.35,.2,.67,.14,.98,0,.02,2.8,0,5.62-.12,8.44-.24,6.06-.13,12.09,.93,18.04,.98,5.5,2.42,10.72,4.34,15.64,5.07,13,13.49,23.94,25.54,32.5,16.92,12,35.58,16.1,55.57,12.8,1.61-.28,3.21-.58,4.83-.94,11.31-2.53,21.38-7.46,30.16-14.64,.04,.14,.09,.28,.13,.42,.18,.63,.13,1.38,.7,1.92,.17-.11,.34-.22,.49-.34Z"/>
      <path class="cls-4" d="M124.84,54.91c.46-.03,.65,.31,.76,.71-.08,.4-.28,.7-.73,.73-.48,.03-.82-.25-.83-.69-.02-.45,.36-.72,.8-.75Z"/>
      <path class="cls-2" d="M118.43,199.12c2.81,2.28,5.6,4.68,6.76,8.34-8.78,7.18-18.85,12.11-30.16,14.64-1.62,.36-3.22,.66-4.83,.94-2.14-4.06-4.33-8.05-7.93-11.2-6.6-5.8-13.95-10.24-21.91-13.82-7.94-3.56-16.37-5.58-24.66-8.03-8.11-2.41-16.14-4.93-23.33-9.57-1.21-.77-2.31-1.64-3.28-2.68-1.92-4.92-3.36-10.14-4.34-15.64-1.06-5.95-1.17-11.98-.93-18.04,.11-2.82,.14-5.64,.12-8.44,.22-.1,.44-.24,.65-.36,2.81-1.64,5.31-3.7,7.71-5.88,6.37-5.74,11.45-12.58,16.62-19.36,2.67-3.52,4.89-7.38,7.81-10.7,.95-1.1,2.04-1.93,3.28-2.52,1.23-.58,2.6-.94,4.12-1.08-.06,1.66,.28,3.04,.87,4.38,1.9,4.3,4.99,7.64,8.34,10.8,3.49,3.3,7.36,6.2,10.68,9.67,1.35,1.41,2.62,2.87,3.23,4.77,.7,2.2-.1,4.56-2.01,5.76-2.2,1.36-4.55,2.42-7.04,3.18-7.5,2.26-15.06,4.44-22.22,7.7-5.26,2.38-9.2,6-11.84,11.36-2.81,5.67-.57,14.54,4.96,18.44,6.01,4.26,12.67,6.66,19.65,8.62,8.55,2.4,17.23,4.11,26.06,4.98,8.64,.84,17.16,2.19,25.43,4.9,6.47,2.1,12.83,4.5,18.19,8.84Z"/>
      <path class="cls-4" d="M119.56,31.06c.01,.46-.31,.64-.71,.72-.38-.08-.61-.28-.6-.7,0-.44,.24-.65,.63-.65s.66,.21,.68,.63Z"/>
      <path class="cls-4" d="M116.77,26.45c.35-.04,.55,.15,.6,.54-.11,.38-.27,.74-.77,.76-.36,.02-.55-.19-.53-.55,.02-.44,.26-.71,.7-.75Z"/>
      <path class="cls-4" d="M109.95,63.56c.02,.61-.44,.78-.9,.97-.52-.12-.86-.45-.88-.97-.02-.56,.3-.91,.88-.89,.56,.01,.89,.3,.9,.89Z"/>
      <path class="cls-4" d="M105.63,47.07c.16,0,.25,.07,.25,.25-.03,.17-.15,.27-.33,.28-.15,.01-.26-.09-.25-.24,.02-.18,.14-.29,.33-.29Z"/>
      <path class="cls-4" d="M101.54,42.81c-.02,.81-.33,1.31-1.11,1.36-.79,.04-1.16-.43-1.16-1.18s.38-1.2,1.17-1.18c.69,.01,1.07,.37,1.1,1Z"/>
      <path class="cls-4" d="M99.25,48.38c.56,.12,.78,.45,.73,.88-.05,.47-.37,.73-.96,.65-.5-.07-.7-.37-.65-.77,.05-.43,.3-.73,.88-.76Z"/>
      <path class="cls-4" d="M96.32,82.48c.16,0,.25,.07,.25,.25-.03,.17-.15,.27-.33,.28-.15,0-.26-.08-.25-.24,.02-.18,.14-.29,.33-.29Z"/>
      <path class="cls-4" d="M93.85,25.99c-.02,.41-.26,.61-.63,.61-.36,.01-.62-.2-.65-.58-.03-.37,.16-.62,.56-.64,.43-.02,.62,.25,.72,.61Z"/>
      <path class="cls-4" d="M92.19,82.95c.4,.01,.68,.2,.74,.64-.09,.43-.34,.7-.78,.72-.41,.01-.71-.22-.7-.65,0-.45,.26-.73,.74-.71Z"/>
      <path class="cls-4" d="M90.79,12.58c.02,.6-.38,.71-.74,.77-.34,.06-.55-.18-.55-.53,0-.41,.24-.64,.64-.68,.37-.04,.6,.15,.65,.44Z"/>
      <path class="cls-4" d="M88.76,72.5c.15,0,.24,.07,.25,.25-.04,.17-.16,.27-.34,.28-.15,.01-.26-.08-.24-.24,.01-.18,.13-.29,.33-.29Z"/>
      <path class="cls-4" d="M82.27,211.84c3.6,3.15,5.79,7.14,7.93,11.2-19.99,3.3-38.65-.8-55.57-12.8-12.05-8.56-20.47-19.5-25.54-32.5,.97,1.04,2.07,1.91,3.28,2.68,7.19,4.64,15.22,7.16,23.33,9.57,8.29,2.45,16.72,4.47,24.66,8.03,7.96,3.58,15.31,8.02,21.91,13.82Z"/>
      <path class="cls-4" d="M80.99,75.42c-.18,.47-.45,.8-1,.78-.6-.03-.8-.38-.77-.92,.03-.51,.34-.8,.82-.73,.46,.06,.84,.35,.95,.87Z"/>
      <path class="cls-4" d="M75.7,61.47c.16,0,.25,.07,.25,.25-.03,.17-.15,.27-.33,.28-.16,.01-.26-.08-.25-.24,.02-.18,.14-.29,.33-.29Z"/>
      <path class="cls-4" d="M74.92,21.02c.15,0,.25,.06,.25,.25-.04,.16-.16,.27-.34,.27-.15,.01-.26-.08-.24-.23,0-.19,.13-.3,.33-.29Z"/>
      <path class="cls-4" d="M72.01,43.1c-.02,.41-.26,.61-.62,.61-.37,.01-.63-.2-.66-.58s.16-.62,.56-.64c.43-.02,.62,.25,.72,.61Z"/>
      <path class="cls-4" d="M69.4,64.93c.42,.05,.69,.23,.7,.67,0,.53-.4,.63-.78,.68-.37,.04-.68-.15-.69-.55-.02-.5,.32-.72,.77-.8Z"/>
      <path class="cls-4" d="M67.24,38.71c.68-.02,1.12,.35,1.13,1.05,0,.74-.4,1.18-1.11,1.28-.77-.06-1.02-.6-1.06-1.2-.05-.68,.33-1.12,1.04-1.13Z"/>
      <path class="cls-4" d="M62,12.4c.05,.73-.32,1.14-1.02,1.17-.71,.04-1.32-.2-1.34-1.04-.02-.74,.35-1.26,1.13-1.3,.77-.04,1.19,.39,1.23,1.17Z"/>
      <path class="cls-4" d="M50.97,27.04c.38-.01,.54,.22,.62,.51-.02,.42-.25,.61-.6,.61-.33,.01-.56-.17-.57-.51-.01-.37,.16-.59,.55-.61Z"/>
      <path d="M41.87,30.25c.6-.04,.98,.35,1.09,.94-.11,.77-.67,.95-1.28,.98-.52,.03-1-.11-.94-.78,.05-.68,.5-1.1,1.13-1.14Z"/>
      <path class="cls-4" d="M39.24,95.11l.77,1.69c-1.24,.59-2.33,1.42-3.28,2.52-2.92,3.32-5.14,7.18-7.81,10.7-5.17,6.78-10.25,13.62-16.62,19.36-2.4,2.18-4.9,4.24-7.71,5.88-.21,.12-.43,.26-.65,.36,0-2.9-.06-5.82-.12-8.72-.1-4.83-.02-9.68-.01-14.52,5.45-1.38,10.47-3.94,15.56-6.31,5.97-2.79,11.58-6.19,17.23-9.55,.86-.52,1.75-.98,2.64-1.41Z"/>
      <path class="cls-4" d="M3.82,126.9c.06,2.9,.11,5.82,.12,8.72-.31,.14-.63,.2-.98,0-.75-.42-.24-1.06-.16-1.6,.42-2.9,.25-5.82,.2-8.72-.06-3.44,.01-6.88,.16-10.34-.81-.44-1.58,.14-2.46,.08-.14-.42-.24-.77-.24-1.07,0-.59,.38-.96,1.5-1.17,.62-.14,1.24-.28,1.85-.42,0,4.84-.09,9.69,.01,14.52Z"/>
    </g>
  </g>
</svg>